<svg xmlns="http://www.w3.org/2000/svg" xmlns:xlink="http://www.w3.org/1999/xlink" width="2623.568" height="292.021" viewBox="0 0 2623.568 292.021">
  <defs>
    <filter id="Rectangle_14" x="0" y="0" width="2623.568" height="292.021" filterUnits="userSpaceOnUse">
      <feOffset dx="7" dy="7" input="SourceAlpha"/>
      <feGaussianBlur stdDeviation="6.5" result="blur"/>
      <feFlood flood-opacity="0.749"/>
      <feComposite operator="in" in2="blur"/>
      <feComposite in="SourceGraphic"/>
    </filter>
    <clipPath id="clip-path">
      <path id="Path_71" data-name="Path 71" d="M519.718,109.162A27.565,27.565,0,1,0,547.282,81.6a27.568,27.568,0,0,0-27.564,27.567" fill="none"/>
    </clipPath>
  </defs>
  <g id="Group_24" data-name="Group 24" transform="translate(24.784 24.5)">
    <g transform="matrix(1, 0, 0, 1, -24.78, -24.5)" filter="url(#Rectangle_14)">
      <rect id="Rectangle_14-2" data-name="Rectangle 14" width="2584.568" height="253.021" transform="translate(12.5 12.5)" fill="#fff"/>
    </g>
    <g id="Group_20" data-name="Group 20">
      <g id="Group_17" data-name="Group 17">
        <path id="Path_37" data-name="Path 37" d="M2211.866,106.273H2129.4a3,3,0,0,1,0-6h82.466a3,3,0,0,1,0,6Z" fill="#ebc137"/>
      </g>
      <g id="Group_18" data-name="Group 18">
        <path id="Path_38" data-name="Path 38" d="M2211.866,126.7H2129.4a3,3,0,0,1,0-6h82.466a3,3,0,0,1,0,6Z" fill="#ebc137"/>
      </g>
      <g id="Group_19" data-name="Group 19">
        <path id="Path_39" data-name="Path 39" d="M2211.866,147.124H2129.4a3,3,0,0,1,0-6h82.466a3,3,0,0,1,0,6Z" fill="#ebc137"/>
      </g>
    </g>
    <g id="Group_23" data-name="Group 23">
      <path id="Path_40" data-name="Path 40" d="M349.454,136.725V81.791h39.94V95.919h-23.46v7.141h20.481v12.554H365.934V122.6h23.46v14.128Z" fill="#aac4d1"/>
      <path id="Path_41" data-name="Path 41" d="M422.905,136.174l-9.342-24.484-2.036,25.034h-16.4l5.022-54.931h15.7l12.48,31.232L440.8,81.793h15.695l5.022,54.931h-16.4l-2.039-25.034-9.335,24.484Z" fill="#aac4d1"/>
      <path id="Path_42" data-name="Path 42" d="M485.372,119.93v16.793H468.888V81.792H495.57c12.874,0,19.621,9.023,19.621,19.541s-6.9,18.6-19.621,18.6Zm0-13.1h8.473c2.827,0,4.866-2.591,4.866-5.338,0-2.9-2.039-5.571-4.866-5.571h-8.473Z" fill="#aac4d1"/>
      <path id="Path_43" data-name="Path 43" d="M626.037,109.1l7.455-27.309h16.952L633.02,136.726H620.462l-8-26.759-8,26.759H591.9L574.479,81.791h16.952l7.455,27.309,7.846-25.5h11.614Z" fill="#aac4d1"/>
      <path id="Path_44" data-name="Path 44" d="M656.013,136.725V81.791h39.943V95.919H672.5v7.141h20.478v12.554H672.5V122.6h23.46v14.128Z" fill="#aac4d1"/>
      <path id="Path_45" data-name="Path 45" d="M720.288,118.2v18.519H703.8V81.792h26.682c12.874,0,19.621,8.712,19.621,19.147,0,8.162-4.162,13.969-11.381,16.244.708,5.261,3.218,7.613,6.434,7.613a11.011,11.011,0,0,0,5.965-1.884l5.025,10.438a24.961,24.961,0,0,1-14.364,4.236c-14.2,0-16.949-13.73-17.576-19.382Zm0-11.378h8.472c2.825,0,4.867-2.591,4.867-5.338,0-2.9-2.042-5.571-4.867-5.571h-8.472Z" fill="#aac4d1"/>
      <path id="Path_46" data-name="Path 46" d="M760.15,136.725V81.791h39.943V95.919H776.63v7.141h20.481v12.554H776.63V122.6h23.463v14.128Z" fill="#ebc137"/>
      <path id="Path_47" data-name="Path 47" d="M808.017,136.724V81.793H833.84c16.008,0,27.935,12.318,27.935,27.464,0,15.226-11.927,27.467-27.935,27.467ZM824.5,95.917V122.6h7.064c8.476,0,13.733-5.18,13.733-13.342s-5.257-13.417-13.733-13.34Z" fill="#ebc137"/>
      <path id="Path_48" data-name="Path 48" d="M361.578,171.481H348.617v-20.39h12.961v2.391H351.531V160.3H360.3v2.388h-8.767v6.408h10.047Z" fill="#ebc137"/>
      <path id="Path_49" data-name="Path 49" d="M373.786,167.258l-1.574,4.223h-3l7.836-20.387h3.38l7.865,20.387h-2.94l-1.6-4.223Zm9.086-2.359-4.133-11.01-4.078,11.01Z" fill="#ebc137"/>
      <path id="Path_50" data-name="Path 50" d="M397.326,171.482v-20.39h8.5c3.9,0,6.146,3,6.146,6.408a5.934,5.934,0,0,1-4.8,6.146c.233,2.214,1.6,5.681,3.875,5.681a3.31,3.31,0,0,0,2.388-.934l1.018,1.981a4.8,4.8,0,0,1-3.584,1.428c-4.773,0-6.233-5.564-6.466-8.04h-4.162v7.72Zm7.892-10.05c2.329,0,3.725-1.628,3.725-3.961,0-2.359-1.4-3.988-3.725-3.988h-4.98v7.949Z" fill="#ebc137"/>
      <path id="Path_51" data-name="Path 51" d="M435.367,171.481H423.133v-20.39h2.911v18h9.323Z" fill="#ebc137"/>
      <path id="Path_52" data-name="Path 52" d="M439.507,151.413v-.32h3.2l5.943,9.523,6-9.523h3.2v.32l-7.72,11.682v8.386h-2.908v-8.386Z" fill="#ebc137"/>
      <path id="Path_53" data-name="Path 53" d="M491.911,171.481H479.676v-20.39h2.911v18h9.323Z" fill="#ebc137"/>
      <path id="Path_54" data-name="Path 54" d="M513.991,171.481H501.03v-20.39h12.961v2.391H503.944V160.3h8.767v2.388h-8.767v6.408h10.047Z" fill="#ebc137"/>
      <path id="Path_55" data-name="Path 55" d="M526.2,167.258l-1.574,4.223h-3l7.836-20.387h3.38l7.865,20.387h-2.94l-1.6-4.223Zm9.087-2.359-4.134-11.01-4.078,11.01Z" fill="#ebc137"/>
      <path id="Path_56" data-name="Path 56" d="M549.74,171.482v-20.39h8.5c3.9,0,6.146,3,6.146,6.408a5.934,5.934,0,0,1-4.8,6.146c.232,2.214,1.6,5.681,3.874,5.681a3.308,3.308,0,0,0,2.388-.934l1.018,1.981a4.8,4.8,0,0,1-3.583,1.428c-4.773,0-6.234-5.564-6.467-8.04h-4.162v7.72Zm7.891-10.05c2.33,0,3.726-1.628,3.726-3.961,0-2.359-1.4-3.988-3.726-3.988h-4.98v7.949Z" fill="#ebc137"/>
      <path id="Path_57" data-name="Path 57" d="M578.458,156.394v15.088h-2.912v-20.39H577.7l11.155,15.029V151.092H591.8v20.39h-2.155Z" fill="#ebc137"/>
      <rect id="Rectangle_15" data-name="Rectangle 15" width="2.912" height="20.39" transform="translate(603.338 151.093)" fill="#ebc137"/>
      <path id="Path_58" data-name="Path 58" d="M620.7,156.394v15.088h-2.911v-20.39h2.155L631.1,166.121V151.092h2.941v20.39h-2.155Z" fill="#ebc137"/>
      <path id="Path_59" data-name="Path 59" d="M647.035,161.317a7.594,7.594,0,0,0,8.01,7.865,8.541,8.541,0,0,0,4.8-1.37v-4.165h-5.739v-2.359H662.5v7.659a11.186,11.186,0,0,1-7.6,2.856,10.518,10.518,0,1,1-.262-21.03,11.565,11.565,0,0,1,7.423,2.243l-1.134,2.242a9.714,9.714,0,0,0-6.289-1.864,7.739,7.739,0,0,0-7.6,7.923" fill="#ebc137"/>
      <path id="Path_60" data-name="Path 60" d="M687.523,167.258l-1.57,4.223h-3l7.836-20.387h3.38l7.866,20.387h-2.944l-1.6-4.223Zm9.091-2.359-4.137-11.01L688.4,164.9Z" fill="#ebc137"/>
      <path id="Path_61" data-name="Path 61" d="M719.978,150.773a10.463,10.463,0,0,1,6.728,2.184l-1.137,2.185a9.822,9.822,0,0,0-5.591-1.745,7.894,7.894,0,1,0,0,15.785,9.823,9.823,0,0,0,5.591-1.748l1.137,2.184a10.463,10.463,0,0,1-6.728,2.185c-6.935,0-11.009-4.834-11.009-10.515s4.074-10.515,11.009-10.515" fill="#ebc137"/>
      <path id="Path_62" data-name="Path 62" d="M738.3,167.258l-1.57,4.223h-3l7.836-20.387h3.38l7.865,20.387h-2.94l-1.6-4.223Zm9.091-2.359-4.137-11.01-4.078,11.01Z" fill="#ebc137"/>
      <path id="Path_63" data-name="Path 63" d="M768.364,171.481h-6.495V151.094h6.495c6.554,0,10.486,4.572,10.486,10.2s-3.932,10.192-10.486,10.192m0-18h-3.58v15.611h3.58c4.66,0,7.513-3.494,7.513-7.8s-2.853-7.807-7.513-7.807" fill="#ebc137"/>
      <path id="Path_64" data-name="Path 64" d="M801.862,171.481H788.9v-20.39h12.961v2.391H791.815V160.3h8.767v2.388h-8.767v6.408h10.047Z" fill="#ebc137"/>
      <path id="Path_65" data-name="Path 65" d="M815.409,155.4l-1.4,16.08H811.07l1.923-20.39h3.264l6.786,16.254,6.786-16.254h3.264l1.919,20.39H832.07l-1.4-16.08-6.557,15.818h-2.155Z" fill="#ebc137"/>
      <path id="Path_66" data-name="Path 66" d="M842.854,151.413v-.32h3.2L852,160.616l6-9.523h3.206v.32l-7.72,11.682v8.386h-2.911v-8.386Z" fill="#ebc137"/>
      <path id="Path_67" data-name="Path 67" d="M574.848,109.16a27.566,27.566,0,1,0-27.564,27.564,27.564,27.564,0,0,0,27.564-27.564" fill="#ebc137"/>
      <g id="Group_22" data-name="Group 22">
        <g id="Group_21" data-name="Group 21" clip-path="url(#clip-path)">
          <path id="Path_68" data-name="Path 68" d="M582.271,84.173a6.59,6.59,0,0,0-.876.8c-1.525,1.428-3.106,2.792-4.715,4.12-1.822,1.5-3.687,2.943-5.613,4.3a53.206,53.206,0,0,1-6.317,3.923,12.157,12.157,0,0,1-2.588,1.124,6.172,6.172,0,0,1-2.925-.09,16.184,16.184,0,0,1-4.989-2.217,19.806,19.806,0,0,1-4.162-3.545c-.827-.927-1.639-1.868-2.414-2.837A2.946,2.946,0,0,0,545.1,88.73a2.725,2.725,0,0,0-1.674.585,1.94,1.94,0,0,0-.495,2.252,8.936,8.936,0,0,0,1.215,2.078c.682.969,1.435,1.893,2.036,2.921a10.843,10.843,0,0,1,.853,1.913c1.231.284,2.44.64,3.636,1.037,2.94.979,5.761,2.265,8.615,3.467a.9.9,0,0,1,.607.915,1.064,1.064,0,0,1-1.15,1,11.613,11.613,0,0,1-2.043-.469c-1.693-.475-3.351-1.06-5.031-1.574a1.76,1.76,0,0,0-.669-.116c-.268.02-.378.181-.278.433a1.717,1.717,0,0,0,.336.537,5.99,5.99,0,0,0,1.141.885c.866.536,1.764,1,2.676,1.457,1.493.74,3.018,1.412,4.553,2.065a1.507,1.507,0,0,1,.885.853.9.9,0,0,1-.662,1.215,1.973,1.973,0,0,1-.892-.058,13.49,13.49,0,0,1-2.026-.7c-1.613-.672-3.219-1.364-4.831-2.036a5.428,5.428,0,0,0-1.719-.456c-.133-.006-.295-.029-.369.12s.026.265.1.381a2.975,2.975,0,0,0,.836.772c1.8,1.293,3.668,2.495,5.487,3.762a20.647,20.647,0,0,1,1.881,1.389,1.217,1.217,0,0,1-.078,1.984,1.49,1.49,0,0,1-1.408.059,10.851,10.851,0,0,1-2.346-1.429c-1.035-.759-2.056-1.538-3.087-2.3a4.4,4.4,0,0,0-1.531-.788,1.172,1.172,0,0,0-.53-.032c-.223.045-.294.19-.194.39a1.157,1.157,0,0,0,.333.385,11.545,11.545,0,0,1,1.5,1.529c1.283,1.5,2.469,3.086,3.607,4.7a2.53,2.53,0,0,1,.446,1.021,1.1,1.1,0,0,1-1.131,1.322,1.785,1.785,0,0,1-1.328-.672,7.094,7.094,0,0,1-.54-.811,23.75,23.75,0,0,0-5.451-5.765,12.785,12.785,0,0,0-4.747-2.366,3.61,3.61,0,0,0-3.445.87,5.362,5.362,0,0,0-1.357,1.967,15.916,15.916,0,0,0,1.551-.42,1.387,1.387,0,0,1,.672-.074.345.345,0,0,1,.3.5,1.652,1.652,0,0,1-.421.621,8.037,8.037,0,0,1-3.034,1.638c-.048.1-.1.2-.155.3a3.093,3.093,0,0,1-.63.943,1.244,1.244,0,0,1-1.626.172,5.05,5.05,0,0,1-.436-.346c-1.063.423-2.145.8-3.183,1.289a8.427,8.427,0,0,0-2.5,1.5,1.942,1.942,0,0,0-.663,1.661,1.793,1.793,0,0,0,2.075,1.555,9.066,9.066,0,0,0,1.8-.605c2.395-.953,4.744-2.019,7.11-3.037,1.389-.6,2.766-1.219,4.184-1.752a2.986,2.986,0,0,1,1.283-.223c.417.036.527.246.307.611a4.377,4.377,0,0,1-.8.908,21.557,21.557,0,0,1-2.614,1.994c-1.939,1.344-3.923,2.621-5.81,4.039a12.574,12.574,0,0,0-2.01,1.768,1.64,1.64,0,0,0-.463,1.218,1.379,1.379,0,0,0,1.432,1.251,2.37,2.37,0,0,0,1.409-.475c1.884-1.312,3.793-2.579,5.745-3.784,1.358-.837,2.731-1.649,4.162-2.35a10.385,10.385,0,0,1,1.952-.766,2.557,2.557,0,0,1,1.18-.045.422.422,0,0,1,.323.685,2.594,2.594,0,0,1-.685.753c-1.648,1.386-3.3,2.763-4.944,4.159a35.046,35.046,0,0,0-2.944,2.737,1.663,1.663,0,0,0-.556,1.37,1.445,1.445,0,0,0,2.356,1.079c1.1-.775,2.22-1.531,3.338-2.291,1.244-.843,2.465-1.722,3.687-2.6q2.477-1.779,4.821-3.726a46.131,46.131,0,0,0,4.569-4.313,20.818,20.818,0,0,0,3.81-5.539,10.342,10.342,0,0,0,.789-2.6.554.554,0,0,1,.21-.365q3.586-2.957,7.345-5.681,2.7-1.962,5.513-3.784c2.048-1.328,4.142-2.578,6.3-3.725a42.673,42.673,0,0,1,6.53-2.883,1.06,1.06,0,0,1,.162-.039q-3-5.287-6.007-10.57" fill="#bd8025"/>
          <path id="Path_69" data-name="Path 69" d="M533.061,116.754a5.327,5.327,0,0,0,.436.349,1.25,1.25,0,0,0,1.625-.171,3.134,3.134,0,0,0,.63-.944c.052-.1.1-.2.155-.3.068-.191.133-.385.21-.569.24-.569.433-1.154.718-1.7a5.359,5.359,0,0,1,1.357-1.971,3.6,3.6,0,0,1,3.441-.869,12.768,12.768,0,0,1,4.747,2.368,23.825,23.825,0,0,1,5.455,5.762,6.106,6.106,0,0,0,.54.811,1.769,1.769,0,0,0,1.328.672,1.1,1.1,0,0,0,1.128-1.318,2.467,2.467,0,0,0-.443-1.021c-1.141-1.616-2.323-3.2-3.61-4.7a11.515,11.515,0,0,0-1.5-1.528,1.162,1.162,0,0,1-.333-.385c-.1-.2-.032-.346.194-.394a1.175,1.175,0,0,1,.53.035,4.339,4.339,0,0,1,1.528.789c1.035.766,2.052,1.545,3.087,2.3a10.724,10.724,0,0,0,2.349,1.425,1.475,1.475,0,0,0,1.405-.055,1.216,1.216,0,0,0,.081-1.984,20.659,20.659,0,0,0-1.88-1.389c-1.823-1.27-3.688-2.469-5.487-3.765a2.9,2.9,0,0,1-.837-.772c-.078-.113-.175-.24-.1-.382s.235-.126.368-.116a5.432,5.432,0,0,1,1.716.456c1.612.672,3.218,1.36,4.831,2.035a13.592,13.592,0,0,0,2.026.7,2.048,2.048,0,0,0,.895.061.9.9,0,0,0,.662-1.215,1.509,1.509,0,0,0-.888-.853c-1.532-.656-3.057-1.328-4.55-2.068-.911-.449-1.813-.921-2.676-1.458a5.971,5.971,0,0,1-1.144-.885,1.6,1.6,0,0,1-.333-.533c-.1-.252.01-.414.278-.436a1.741,1.741,0,0,1,.669.116c1.677.517,3.338,1.1,5.028,1.577a11.957,11.957,0,0,0,2.043.468,1.064,1.064,0,0,0,1.153-1,.9.9,0,0,0-.61-.911c-2.854-1.205-5.675-2.488-8.615-3.47-1.2-.4-2.405-.75-3.636-1.038a18.94,18.94,0,0,0-4.394-.51,8.044,8.044,0,0,0-3.07.594.451.451,0,0,1-.333.01c-2.537-.84-5.044-1.764-7.513-2.805a65.837,65.837,0,0,1-6.657-3.2c-.084-.048-.162-.107-.242-.158q-3.97,2.259-7.94,4.514c.565.152,1.134.3,1.7.456,2.039.575,4.055,1.224,6.039,1.984a43.385,43.385,0,0,1,6.663,3.144,4.613,4.613,0,0,1,2.159,2.992,12.05,12.05,0,0,1,.3,4.379,16.926,16.926,0,0,1-.972,4.12c-.052.171-.1.346-.165.51a2.064,2.064,0,0,0,.352,2.085c.039.051.071.106.107.161" fill="#fff"/>
          <path id="Path_70" data-name="Path 70" d="M532.767,114a16.868,16.868,0,0,0,.973-4.123c-.95.181-1.9.352-2.857.475a32.822,32.822,0,0,1-4.466.259,2.657,2.657,0,0,0-2.178.963,1.649,1.649,0,0,0,.825,2.733,4.813,4.813,0,0,0,1.783.149c1.471-.074,2.934-.184,4.4-.31.511-.045,1.015-.1,1.522-.146" fill="#bd8025"/>
        </g>
      </g>
    </g>
  </g>
</svg>
