<svg width="38" height="38" viewBox="0 0 38 38" fill="none" xmlns="http://www.w3.org/2000/svg">
<path d="M29.1099 7.10012C28.6724 7.09814 28.2441 7.22616 27.8794 7.4678C27.5147 7.70943 27.2298 8.0539 27.061 8.45754C26.8922 8.86119 26.8471 9.30553 26.9312 9.73489C27.0154 10.1642 27.225 10.5591 27.5337 10.8692C27.8424 11.1792 28.2361 11.3905 28.6651 11.4766C29.0941 11.5627 29.539 11.5195 29.9434 11.3526C30.3478 11.1856 30.6935 10.9027 30.9368 10.5391C31.1801 10.1754 31.3099 9.7476 31.3099 9.31008C31.3099 8.72568 31.0785 8.16517 30.6662 7.751C30.2539 7.33683 29.6943 7.10276 29.1099 7.10012Z" fill="#BD8025"/>
<path d="M19.32 9.93018C17.4905 9.93018 15.7021 10.4724 14.1809 11.4888C12.6598 12.5052 11.4742 13.9499 10.7741 15.6401C10.0739 17.3304 9.89078 19.1901 10.2477 20.9844C10.6046 22.7787 11.4855 24.4271 12.7792 25.7207C14.0728 27.0143 15.7211 27.8955 17.5154 28.2524C19.3097 28.6094 21.1695 28.4262 22.8597 27.7261C24.55 27.026 25.9947 25.84 27.0111 24.3188C28.0275 22.7977 28.57 21.0097 28.57 19.1802C28.5673 16.7277 27.5919 14.3762 25.8577 12.6421C24.1236 10.908 21.7724 9.93282 19.32 9.93018ZM19.32 25.1001C18.1467 25.1001 16.9998 24.7521 16.0244 24.1001C15.049 23.4481 14.2889 22.5212 13.8404 21.437C13.3919 20.3529 13.275 19.1599 13.5046 18.0093C13.7343 16.8587 14.3001 15.8021 15.1304 14.9731C15.9607 14.1442 17.0182 13.5802 18.1692 13.3525C19.3202 13.1249 20.5128 13.244 21.5962 13.6943C22.6796 14.1447 23.605 14.9063 24.2554 15.8828C24.9058 16.8593 25.2519 18.0069 25.2499 19.1802C25.2473 20.7512 24.6213 22.2568 23.5095 23.3667C22.3977 24.4766 20.891 25.1001 19.32 25.1001Z" fill="#BD8025"/>
<path d="M26.6699 38.0001H11.6699C8.67909 37.9974 5.81155 36.8083 3.69672 34.6934C1.58188 32.5786 0.392602 29.7111 0.389954 26.7203V11.7203C0.392602 8.72946 1.58188 5.86149 3.69672 3.74665C5.81155 1.63182 8.67909 0.442661 11.6699 0.440013H26.6699C29.6625 0.429381 32.5369 1.60729 34.6614 3.71492C36.7859 5.82254 37.9867 8.68768 37.9999 11.6802V26.6802C38.0039 28.1688 37.7135 29.6433 37.1454 31.0191C36.5773 32.395 35.7427 33.6448 34.6897 34.6968C33.6367 35.7489 32.386 36.5826 31.0096 37.1495C29.6333 37.7164 28.1584 38.0054 26.6699 38.0001ZM11.6699 4.00007C9.61531 4.00272 7.64564 4.82019 6.19281 6.27302C4.73998 7.72585 3.92257 9.69546 3.91992 11.7501V26.7501C3.92257 28.8047 4.73998 30.7743 6.19281 32.2271C7.64564 33.68 9.61531 34.4974 11.6699 34.5001H26.6699C28.7236 34.4974 30.6923 33.6798 32.1436 32.2266C33.5948 30.7735 34.4099 28.8038 34.4099 26.7501V11.7501C34.4099 9.69637 33.5948 7.72663 32.1436 6.27351C30.6923 4.82039 28.7236 4.00272 26.6699 4.00007H11.6699Z" fill="#BD8025"/>
</svg>
