<svg width="34" height="34" viewBox="0 0 34 34" fill="none" xmlns="http://www.w3.org/2000/svg">
<path d="M32.28 25.0601L28.19 20.9702C27.9216 20.7014 27.6028 20.4878 27.2519 20.3423C26.901 20.1968 26.5249 20.1221 26.145 20.1221C25.7652 20.1221 25.389 20.1968 25.0381 20.3423C24.6872 20.4878 24.3684 20.7014 24.1 20.9702L22.24 22.8301C21.8279 23.2392 21.2707 23.4688 20.69 23.4688C20.1093 23.4688 19.5521 23.2392 19.14 22.8301L11.08 14.7598C10.8762 14.5564 10.7146 14.3148 10.6042 14.0488C10.4939 13.7829 10.4371 13.4979 10.4371 13.21C10.4371 12.922 10.4939 12.6371 10.6042 12.3711C10.7146 12.1051 10.8762 11.8636 11.08 11.6602L12.94 9.7998C13.2088 9.53139 13.4221 9.21272 13.5676 8.86182C13.7131 8.51092 13.7879 8.13475 13.7879 7.75488C13.7879 7.37501 13.7131 6.99885 13.5676 6.64795C13.4221 6.29705 13.2088 5.97838 12.94 5.70996L8.84998 1.62988C8.58156 1.36108 8.26283 1.14794 7.91193 1.00244C7.56103 0.856947 7.18486 0.782227 6.80499 0.782227C6.42512 0.782227 6.04902 0.856947 5.69812 1.00244C5.34722 1.14794 5.02842 1.36108 4.76001 1.62988L3.27002 3.10986C1.31654 5.06715 0.21936 7.71953 0.21936 10.4849C0.21936 13.2502 1.31654 15.9026 3.27002 17.8599L16 30.6401C17.9573 32.5936 20.6097 33.6904 23.375 33.6904C26.1403 33.6904 28.7927 32.5936 30.75 30.6401L32.24 29.1499C32.5114 28.8841 32.7278 28.5677 32.8768 28.2183C33.0257 27.8688 33.1043 27.4932 33.108 27.1133C33.1117 26.7334 33.0405 26.3567 32.8984 26.0044C32.7564 25.6521 32.5462 25.3311 32.28 25.0601ZM26.83 22.3301L30.92 26.4199C31.0915 26.6048 31.1868 26.8479 31.1868 27.1001C31.1868 27.3523 31.0915 27.5949 30.92 27.7798L30.24 28.4702L24.78 23.0098L25.46 22.3301C25.6455 22.1557 25.8905 22.0586 26.145 22.0586C26.3996 22.0586 26.6446 22.1557 26.83 22.3301ZM7.48999 3L11.58 7.06982C11.7544 7.25528 11.8514 7.50032 11.8514 7.75488C11.8514 8.00944 11.7544 8.25448 11.58 8.43994L10.9 9.12012L5.44 3.66992L6.12 3C6.30545 2.82563 6.55043 2.72852 6.80499 2.72852C7.05955 2.72852 7.30453 2.82563 7.48999 3ZM17.41 29.27L4.64001 16.4902C3.13639 14.9959 2.24692 12.9925 2.14697 10.875C2.04702 8.7575 2.74379 6.67909 4.09998 5.0498L9.53998 10.4902C8.84739 11.2751 8.48041 12.2946 8.51385 13.3408C8.5473 14.3871 8.97867 15.3811 9.71997 16.1201L17.78 24.1899C18.5191 24.9312 19.5131 25.3625 20.5593 25.396C21.6056 25.4294 22.6251 25.0627 23.41 24.3701L28.85 29.7998C27.2248 31.1639 25.146 31.8667 23.0266 31.7686C20.9071 31.6704 18.9021 30.7785 17.41 29.27Z" fill="white"/>
</svg>
